<?xml version="1.0" encoding="utf-8"?>
<!-- Generator: Adobe Illustrator 19.1.0, SVG Export Plug-In . SVG Version: 6.00 Build 0)  -->
<!DOCTYPE svg PUBLIC "-//W3C//DTD SVG 1.1//EN" "http://www.w3.org/Graphics/SVG/1.1/DTD/svg11.dtd">
<svg version="1.1" id="Layer_1" xmlns="http://www.w3.org/2000/svg" xmlns:xlink="http://www.w3.org/1999/xlink" x="0px" y="0px"
	 viewBox="0 0 1050 200" style="enable-background:new 0 0 1050 200;" xml:space="preserve">
<style type="text/css">
	.st0{fill:#ED1C24;}
</style>
<g>
	<path class="st0" d="M802.7,86.6c1.3-2.2,2-4.9,2-7.9c0-3.2-0.6-5.9-1.9-8.1c-1.3-2.2-3-3.9-5-5.2c-2.1-1.3-4.6-2.2-7.3-2.8
		c-2.8-0.6-5.7-0.9-8.8-0.9H763v34.4h19.2c2.7,0,5.5-0.3,8.2-1c2.7-0.7,5.1-1.7,7.2-3.1C799.7,90.6,801.4,88.8,802.7,86.6z"/>
	<path class="st0" d="M801.6,133.8c2.1-1.5,3.8-3.4,5.1-5.8c1.2-2.4,1.9-5.2,1.9-8.5c0-3.6-0.7-6.7-2.2-9.3
		c-1.5-2.6-3.3-4.6-5.6-6.2c-2.3-1.6-4.8-2.7-7.5-3.5c-2.7-0.7-5.4-1.1-8-1.1H763v38.8h21c3.5,0,6.8-0.4,9.9-1.1
		C796.8,136.4,799.4,135.3,801.6,133.8z"/>
	<path class="st0" d="M209.9,92.3c3.8-3.1,5.8-7.5,5.8-13.1c0-3.4-0.7-6.4-2-8.6c-1.3-2.3-3.1-4.1-5.3-5.4c-2.2-1.3-4.8-2.3-7.7-2.8
		c-2.9-0.5-6-0.8-9-0.8h-18.3v35.3h19.6C200.3,96.9,206.1,95.4,209.9,92.3z"/>
	<path class="st0" d="M0,0v200h1050V0H0z M137.2,130.2c-1.7,2.9-3.9,5.2-6.5,6.8c-2.6,1.7-5.6,2.8-8.7,3.5c-3.1,0.7-6.2,1-9.1,1
		H87.2V58.4H110c3.1,0,6.2,0.3,9.3,0.9c3.1,0.6,5.9,1.7,8.3,3.2c2.5,1.5,4.5,3.6,6,6.1c1.5,2.5,2.3,5.8,2.3,9.7c0,3-0.5,5.6-1.4,7.9
		c-0.9,2.2-2.3,4.1-3.9,5.7c-1.6,1.6-3.5,2.9-5.5,3.9c-1.5,0.7-2.9,1.3-4.4,1.7c1.6,0.3,3.3,0.8,5,1.4c2.4,0.9,4.7,2.2,6.8,4
		c2.1,1.7,3.9,4,5.2,6.7c1.4,2.7,2.1,5.9,2.1,9.6C139.8,123.6,138.9,127.4,137.2,130.2z M216.6,141.6l-24.8-41.4h-18.5v41.4h-3.6
		V58.4H193c3,0,6.1,0.3,9.3,0.8c3.1,0.6,6,1.6,8.5,3.1c2.5,1.5,4.6,3.7,6.1,6.4c1.6,2.7,2.4,6.2,2.4,10.5c0,3.9-0.8,7.3-2.3,9.9
		c-1.5,2.6-3.5,4.8-5.8,6.4c-2.4,1.6-5,2.8-7.9,3.5c-2.5,0.6-5.1,1-7.5,1l25,41.5H216.6z M253.8,141.6h-3.6V58.4h3.6V141.6z
		 M349.3,141.6l-9.7-23.6h-47l-10.1,23.6h-3.9l36.1-83.1h3.9l34.6,83.1H349.3z M444.5,141.6H440l-58.5-78.4v78.4h-3.6V58.4h4.3
		l58.7,78.2V58.4h3.6V141.6z M581.6,141.6h-3.6v-41.3h-54.2v41.3h-3.6V58.4h3.6v38.5h54.2V58.4h3.6V141.6z M620.4,141.6h-3.6V58.4
		h3.6V141.6z M725.5,136.6l-0.3,0.1c-3.3,1.8-7.4,3.4-12.4,4.9c-5,1.5-10.8,2.2-17.3,2.2c-6.5,0-12.6-1.1-18-3.4
		c-5.4-2.3-10.1-5.4-13.9-9.3c-3.8-3.9-6.8-8.6-8.9-14c-2.1-5.3-3.1-11.2-3.1-17.4c0-6.2,1.1-12.1,3.2-17.4c2.1-5.3,5.1-10,8.9-13.9
		c3.8-3.9,8.4-6.9,13.7-9.1c5.3-2.2,11.2-3.3,17.6-3.3c5.6,0,10.8,0.9,15.5,2.6c4.7,1.7,8.9,4.1,12.4,7l0.4,0.4l-2.6,2.6l-0.4-0.3
		c-1.5-1.4-3.3-2.7-5.3-3.8c-2-1.1-4.2-2-6.4-2.8c-2.2-0.8-4.6-1.3-6.9-1.7c-2.4-0.4-4.7-0.6-6.9-0.6c-5.9,0-11.4,1.1-16.3,3.2
		c-4.9,2.1-9.1,5-12.5,8.6c-3.5,3.6-6.2,8-8,12.8c-1.9,4.9-2.8,10.2-2.8,15.7c0,5.6,0.9,10.9,2.8,15.8c1.8,4.9,4.5,9.3,8,13
		c3.5,3.7,7.7,6.6,12.7,8.8c5,2.1,10.7,3.2,17,3.2c5.5,0,10.5-0.6,14.7-1.7c4.2-1.1,8.1-2.5,11.6-4.2v-31.4h-21.3V100h24.9V136.6z
		 M809.5,130.2c-1.7,2.9-3.9,5.2-6.5,6.8c-2.6,1.6-5.6,2.8-8.7,3.5c-3.1,0.7-6.2,1-9.1,1h-25.7V58.4h22.9c3.1,0,6.2,0.3,9.3,0.9
		c3.1,0.6,5.9,1.7,8.3,3.2c2.5,1.5,4.5,3.6,6,6.1c1.5,2.5,2.3,5.8,2.3,9.7c0,3-0.5,5.6-1.4,7.9c-0.9,2.2-2.3,4.1-3.9,5.7
		c-1.6,1.6-3.5,2.9-5.5,3.9c-1.5,0.7-2.9,1.3-4.4,1.7c1.6,0.3,3.3,0.8,5,1.4c2.4,0.9,4.7,2.2,6.8,4c2.1,1.7,3.9,4,5.2,6.7
		c1.4,2.7,2.1,5.9,2.1,9.6C812,123.6,811.2,127.4,809.5,130.2z M892.8,141.6H842V58.4h48.9v3.3h-45.4v35.1h42.7v3.3h-42.7v38.1h47.2
		V141.6z M972.8,141.6h-50.8V58.4H971v3.3h-45.4v35.1h42.7v3.3h-42.7v38.1h47.2V141.6z"/>
	<path class="st0" d="M130.4,86.6c1.3-2.2,2-4.9,2-7.9c0-3.2-0.6-5.9-1.9-8.1c-1.3-2.2-3-3.9-5-5.2c-2.1-1.3-4.6-2.2-7.3-2.8
		c-2.8-0.6-5.7-0.9-8.8-0.9H90.7v34.4h19.2c2.7,0,5.5-0.3,8.2-1c2.7-0.7,5.1-1.7,7.2-3.1C127.4,90.6,129.1,88.8,130.4,86.6z"/>
	<polygon class="st0" points="293.9,114.8 338.3,114.8 316.4,61.8 	"/>
	<path class="st0" d="M121.5,137.2c3-0.7,5.6-1.8,7.8-3.3c2.1-1.5,3.8-3.4,5.1-5.8c1.2-2.4,1.9-5.2,1.9-8.5c0-3.6-0.7-6.7-2.2-9.3
		c-1.5-2.6-3.3-4.6-5.6-6.2c-2.3-1.6-4.8-2.7-7.5-3.5c-2.7-0.7-5.4-1.1-8-1.1H90.7v38.8h21C115.2,138.3,118.5,137.9,121.5,137.2z"/>
</g>
</svg>
